<svg width="104" height="104" viewBox="0 0 104 104" fill="none" xmlns="http://www.w3.org/2000/svg">
<path d="M17.8846 61L18.2852 58.7159L18.788 58.6989C19.4925 58.6818 20.0806 58.446 20.5522 57.9915C21.0295 57.5369 21.4414 56.804 21.788 55.7926C22.1403 54.7812 22.484 53.4318 22.8192 51.7443L24.4812 43.5455H35.5181L32.6204 61H30.021L32.5437 45.7784H26.5948L25.2141 52.4432C24.8278 54.3125 24.3761 55.8835 23.859 57.1562C23.3477 58.4233 22.68 59.3807 21.8562 60.0284C21.0323 60.6761 19.9585 61 18.6346 61H17.8846ZM53.0408 52.4432C52.734 54.2784 52.1374 55.8523 51.2511 57.1648C50.3704 58.4773 49.2908 59.4858 48.0124 60.1903C46.7397 60.8892 45.3647 61.2386 43.8874 61.2386C42.3477 61.2386 41.0323 60.8722 39.9414 60.1392C38.8562 59.4006 38.0778 58.3523 37.6062 56.9943C37.1346 55.6307 37.055 54.0057 37.3675 52.1193C37.6744 50.2841 38.2681 48.7102 39.1488 47.3977C40.0352 46.0795 41.1175 45.0682 42.396 44.3636C43.68 43.6591 45.0664 43.3068 46.555 43.3068C48.0835 43.3068 49.3874 43.6761 50.467 44.4148C51.5522 45.1477 52.3306 46.1989 52.8022 47.5682C53.2738 48.9318 53.3533 50.5568 53.0408 52.4432ZM50.4755 52.1193C50.7085 50.7273 50.68 49.5568 50.3903 48.608C50.1062 47.6534 49.6204 46.9318 48.9329 46.4432C48.2454 45.9545 47.4158 45.7102 46.4442 45.7102C45.4102 45.7102 44.4414 45.9716 43.538 46.4943C42.6403 47.017 41.8732 47.7784 41.2369 48.7784C40.6005 49.7784 40.1658 51 39.9329 52.4432C39.6942 53.8352 39.7198 55.0057 40.0096 55.9545C40.2994 56.9034 40.788 57.6222 41.4755 58.1108C42.1687 58.5937 43.0011 58.8352 43.9727 58.8352C45.0011 58.8352 45.9641 58.5767 46.8619 58.0597C47.7653 57.5369 48.5352 56.7784 49.1715 55.7841C49.8079 54.7841 50.2425 53.5625 50.4755 52.1193ZM68.6822 43.5455L68.3072 45.8125H60.0572L57.5344 61H54.9009L57.7987 43.5455H68.6822ZM84.5877 52.4432C84.2809 54.2784 83.6843 55.8523 82.7979 57.1648C81.9173 58.4773 80.8377 59.4858 79.5593 60.1903C78.2866 60.8892 76.9116 61.2386 75.4343 61.2386C73.8945 61.2386 72.5792 60.8722 71.4883 60.1392C70.4031 59.4006 69.6246 58.3523 69.1531 56.9943C68.6815 55.6307 68.6019 54.0057 68.9144 52.1193C69.2212 50.2841 69.815 48.7102 70.6957 47.3977C71.582 46.0795 72.6644 45.0682 73.9428 44.3636C75.2269 43.6591 76.6133 43.3068 78.1019 43.3068C79.6303 43.3068 80.9343 43.6761 82.0139 44.4148C83.0991 45.1477 83.8775 46.1989 84.3491 47.5682C84.8207 48.9318 84.9002 50.5568 84.5877 52.4432ZM82.0224 52.1193C82.2553 50.7273 82.2269 49.5568 81.9371 48.608C81.6531 47.6534 81.1673 46.9318 80.4798 46.4432C79.7923 45.9545 78.9627 45.7102 77.9911 45.7102C76.957 45.7102 75.9883 45.9716 75.0849 46.4943C74.1871 47.017 73.4201 47.7784 72.7837 48.7784C72.1474 49.7784 71.7127 51 71.4798 52.4432C71.2411 53.8352 71.2667 55.0057 71.5565 55.9545C71.8462 56.9034 72.3349 57.6222 73.0224 58.1108C73.7156 58.5937 74.5479 58.8352 75.5195 58.8352C76.5479 58.8352 77.511 58.5767 78.4087 58.0597C79.3121 57.5369 80.082 56.7784 80.7184 55.7841C81.3548 54.7841 81.7894 53.5625 82.0224 52.1193Z" fill="#3E25D8"/>
</svg>
